<svg xmlns="http://www.w3.org/2000/svg" viewBox="0 0 64 64" fill="none">
  <defs>
    <linearGradient id="ringGrad" x1="0" y1="0" x2="64" y2="64" gradientUnits="userSpaceOnUse">
      <stop offset="0" stop-color="#9DC6EC"/>
      <stop offset="1" stop-color="#5B8DBF"/>
    </linearGradient>
  </defs>
  <!-- nest: three overlapping woven arcs cradling a page-fold leaf -->
  <path d="M8 40c0-15 10.7-27 24-27s24 12 24 27" stroke="url(#ringGrad)" stroke-width="4.5" stroke-linecap="round" fill="none"/>
  <path d="M14 42c0-12.2 8.5-22.4 18-22.4s18 10.2 18 22.4" stroke="#2E5C8A" stroke-width="3" stroke-linecap="round" fill="none" opacity="0.55"/>
  <path d="M20 44c0-8.8 5.4-16 12-16s12 7.2 12 16" stroke="url(#ringGrad)" stroke-width="3" stroke-linecap="round" fill="none"/>
  <!-- folded page / leaf resting in the nest -->
  <path d="M32 30c-5.2 0-9 4.6-9 11.5 0 1.4 1.5 2.2 2.6 1.4 1.9-1.4 4-2.2 6.4-2.2s4.5.8 6.4 2.2c1.1.8 2.6 0 2.6-1.4C41 34.6 37.2 30 32 30Z" fill="#F4A875"/>
  <path d="M32 30v12.7" stroke="#fff" stroke-width="1.4" stroke-linecap="round"/>
</svg>
